<?xml version="1.0" standalone="no"?>
<!DOCTYPE svg PUBLIC "-//W3C//DTD SVG 20010904//EN"
 "http://www.w3.org/TR/2001/REC-SVG-20010904/DTD/svg10.dtd">
<svg version="1.0" xmlns="http://www.w3.org/2000/svg"
 width="671.000000pt" height="622.000000pt" viewBox="0 0 671.000000 622.000000"
 preserveAspectRatio="xMidYMid meet">
<metadata>
Created by potrace 1.12, written by Peter Selinger 2001-2015
</metadata>
<g transform="translate(0.000000,622.000000) scale(0.100000,-0.100000)"
fill="#000000" stroke="none">
<path d="M3977 5469 c-20 -12 -13 -30 36 -91 31 -39 57 -49 57 -23 0 18 21 20
38 3 10 -10 14 -8 19 10 6 23 6 23 43 -13 46 -45 65 -39 68 19 1 34 -4 49 -23
70 -28 30 -85 37 -85 10 0 -13 -5 -12 -34 5 -32 20 -34 20 -41 4 -6 -17 -7
-17 -19 0 -15 19 -33 21 -59 6z"/>
<path d="M4335 5456 c-21 -21 -26 -22 -42 -10 -26 19 -43 17 -43 -6 0 -12 7
-20 17 -20 9 0 27 -10 40 -22 18 -17 26 -19 35 -10 20 20 55 14 73 -14 9 -14
32 -42 51 -62 36 -38 40 -47 25 -56 -12 -8 -71 42 -71 59 0 19 -25 36 -44 29
-26 -10 -19 -30 23 -66 21 -18 46 -49 56 -68 10 -19 35 -61 56 -92 22 -31 39
-64 39 -72 0 -8 12 -23 27 -34 l27 -20 -30 -26 c-58 -53 -79 -59 -139 -42 -29
9 -63 16 -76 16 -13 0 -61 19 -107 42 -96 48 -168 58 -245 35 -31 -10 -49 -12
-53 -5 -4 7 -29 8 -63 5 -73 -8 -173 2 -168 17 2 6 19 12 38 14 36 3 99 31 99
44 0 12 -38 10 -45 -2 -4 -6 -15 0 -26 14 -34 43 -109 71 -124 46 -11 -17 -25
-11 -25 11 0 28 -17 56 -41 70 -16 8 -25 7 -40 -7 -25 -23 -26 -91 -1 -111 16
-14 16 -14 -3 -9 -11 2 -30 8 -42 11 -32 10 -76 -58 -67 -103 6 -28 3 -33 -21
-42 -22 -8 -26 -15 -21 -34 5 -20 3 -23 -14 -19 -15 4 -20 14 -20 39 0 41 -20
45 -55 10 -13 -14 -33 -27 -43 -30 -11 -4 -24 -18 -30 -31 -15 -34 -52 -47
-73 -28 -17 14 -41 8 -121 -33 -14 -8 -44 -14 -66 -14 -45 0 -71 -20 -49 -39
10 -8 18 -7 33 4 10 8 31 15 46 15 25 0 26 -2 22 -37 -8 -53 -12 -63 -24 -63
-6 0 -8 5 -5 10 3 6 -5 10 -19 10 -17 0 -32 -9 -43 -27 -22 -35 -37 -47 -89
-73 -22 -11 -56 -39 -73 -61 -34 -41 -35 -65 -3 -36 27 24 32 21 32 -18 0 -41
5 -43 37 -14 20 20 23 20 29 5 3 -9 4 -30 1 -46 -4 -15 -2 -54 3 -84 7 -43 5
-66 -5 -97 -22 -60 -4 -78 38 -38 12 11 35 28 51 36 l29 15 -6 -48 c-3 -26 0
-58 5 -70 14 -30 2 -74 -20 -74 -10 0 -32 14 -50 30 -36 33 -72 39 -135 22
-38 -10 -77 -6 -77 9 0 26 22 59 40 59 15 0 20 7 20 29 0 17 -4 33 -10 36 -5
3 -10 15 -10 26 0 11 -4 17 -10 14 -5 -3 -10 -23 -10 -43 0 -34 -1 -35 -17
-20 -15 16 -18 15 -41 -9 -20 -22 -22 -30 -13 -50 16 -34 -21 -97 -51 -88 -10
4 -25 1 -33 -5 -18 -15 -20 -57 -3 -62 8 -3 9 -15 1 -46 -9 -34 -8 -42 3 -42
8 0 14 -3 15 -7 0 -5 2 -17 4 -27 2 -11 -1 -28 -7 -39 -7 -13 -7 -22 1 -30 6
-6 11 -20 11 -30 0 -10 9 -21 20 -24 27 -7 34 -37 16 -72 -22 -42 -20 -52 9
-45 33 8 35 -23 1 -35 -24 -10 -40 -36 -31 -51 6 -9 -10 -15 -67 -25 -29 -6
-40 -3 -57 14 -28 28 -102 28 -173 1 l-52 -20 -22 21 -21 20 -61 -63 c-34 -34
-64 -60 -66 -57 -11 10 6 45 26 54 12 6 26 24 31 40 5 17 22 44 37 60 15 17
34 40 42 52 8 13 54 66 101 118 48 53 87 102 87 110 0 17 -35 20 -45 5 -4 -6
-32 -25 -63 -43 -90 -50 -210 -171 -243 -243 -30 -66 -39 -72 -174 -109 -33
-9 -78 -27 -100 -40 -22 -12 -58 -28 -81 -34 -41 -11 -144 -84 -176 -124 -23
-28 -23 -59 0 -87 24 -30 124 -38 207 -16 32 9 67 16 77 16 33 0 19 -34 -39
-92 -31 -32 -55 -59 -52 -62 2 -2 54 24 116 59 112 62 218 103 231 90 9 -9 0
-16 -208 -159 -95 -66 -190 -136 -211 -155 -61 -57 -71 -65 -134 -100 -33 -18
-89 -55 -125 -81 -36 -26 -83 -56 -105 -68 -42 -22 -272 -113 -409 -162 -129
-47 -264 -101 -231 -94 17 3 50 8 75 10 46 4 127 30 145 45 5 5 18 9 30 9 21
0 153 48 205 75 17 9 55 20 85 26 30 5 74 19 98 29 44 21 102 26 111 11 7 -11
-70 -82 -129 -119 -22 -14 -78 -45 -125 -70 -47 -24 -103 -55 -125 -67 -22
-13 -60 -31 -85 -40 -25 -10 -70 -28 -100 -42 -30 -14 -77 -34 -105 -45 -27
-10 -68 -27 -90 -37 -22 -10 -82 -33 -133 -51 -70 -25 -92 -37 -90 -49 2 -9
13 -17 26 -19 26 -4 147 44 237 93 33 18 71 36 85 40 37 11 124 52 393 184
133 65 265 129 292 141 141 63 242 113 331 163 55 30 131 72 169 93 39 21 113
62 165 93 192 110 326 181 360 191 19 5 60 10 90 10 30 0 73 5 95 11 83 22 96
22 124 2 15 -11 41 -24 59 -28 17 -3 34 -11 37 -16 10 -15 45 -10 45 6 0 22
45 48 70 40 12 -4 27 -1 35 5 8 7 26 9 39 6 15 -4 26 -1 28 6 6 17 82 -15 86
-36 4 -20 -16 -21 -38 -1 -15 14 -18 14 -30 0 -17 -21 -9 -27 45 -35 31 -5 44
-3 42 4 -2 6 7 16 21 23 32 17 32 17 32 -11 0 -30 -17 -43 -23 -19 -4 17 -5
17 -6 1 0 -10 -5 -18 -11 -18 -18 0 27 -37 56 -47 16 -5 29 -16 30 -24 0 -8
22 -35 47 -62 26 -26 47 -55 47 -65 0 -10 5 -23 12 -30 6 -6 11 -34 10 -62 -1
-39 4 -56 23 -78 37 -45 70 -141 56 -164 -10 -15 -7 -20 14 -30 17 -8 28 -24
35 -52 6 -23 14 -57 20 -76 5 -19 14 -56 19 -82 6 -27 15 -67 21 -90 5 -24 11
-56 14 -73 3 -16 10 -52 16 -80 6 -27 14 -66 17 -85 3 -19 10 -41 16 -49 7 -7
13 -30 14 -50 1 -20 9 -97 18 -171 29 -261 -4 -354 -132 -375 -24 -4 -43 -8
-43 -9 0 -17 48 -86 75 -109 36 -29 115 -137 115 -156 0 -6 19 -11 41 -11 69
0 223 22 235 34 6 6 16 92 22 205 12 215 14 220 99 303 34 33 138 78 179 78 7
0 31 20 54 44 25 26 58 48 83 56 87 27 162 68 180 99 21 36 166 170 262 243
53 40 85 75 130 144 33 50 77 111 98 136 20 25 37 50 37 57 0 6 9 20 21 32 22
22 19 46 -7 56 -11 4 -33 -14 -75 -60 -33 -36 -108 -105 -168 -152 -77 -61
-114 -98 -126 -125 -9 -21 -14 -43 -11 -49 4 -7 -1 -11 -13 -11 -21 0 -147
-96 -144 -110 1 -4 -10 -10 -25 -13 -25 -5 -101 -45 -251 -132 -62 -36 -65
-37 -152 -33 -70 2 -93 7 -116 24 -52 39 -107 134 -141 244 -19 58 -38 116
-44 130 -30 74 -88 286 -88 324 0 10 9 34 21 53 15 23 22 56 26 111 4 70 2 84
-26 151 -17 41 -31 78 -31 82 0 9 65 39 78 38 21 -3 36 5 73 38 32 29 44 35
57 26 29 -17 98 -1 122 29 26 34 108 90 120 83 5 -3 5 -16 0 -31 -6 -14 -10
-27 -10 -30 0 -8 95 63 135 102 23 22 56 64 75 92 18 29 40 52 47 52 8 0 19
14 24 30 9 23 17 30 38 30 22 0 31 8 46 43 11 23 18 51 16 61 -2 12 11 32 32
51 29 27 37 44 50 106 9 41 19 82 22 92 4 10 3 17 -4 17 -6 0 -14 -12 -17 -27
-11 -44 -38 -57 -47 -22 -8 32 -51 22 -55 -12 -3 -27 -37 -67 -48 -56 -3 3 0
15 6 27 6 12 10 34 8 49 -1 17 6 38 20 56 12 15 25 40 28 54 10 44 13 51 25
51 7 0 8 -6 3 -17 -12 -29 -8 -73 9 -90 20 -20 47 -10 47 17 0 11 7 23 15 26
15 6 21 60 8 66 -5 2 -18 23 -30 47 -22 42 -22 43 -3 48 13 4 20 14 20 30 0
19 4 24 16 19 9 -3 20 -6 25 -6 5 0 9 -14 9 -31 0 -24 4 -30 15 -25 10 4 15
-1 15 -14 0 -11 9 -29 20 -40 11 -11 20 -16 20 -11 0 5 7 16 15 25 20 19 9 46
-18 43 -19 -2 -21 3 -19 29 2 17 -3 38 -10 45 -8 8 -15 34 -16 59 -4 91 -5 97
-26 106 -21 9 -83 154 -66 154 22 0 39 32 33 63 -9 51 -22 69 -43 62 -10 -3
-21 -1 -25 5 -10 16 -25 1 -25 -26 0 -14 -6 -24 -14 -24 -11 0 -16 15 -18 53
-3 49 -4 52 -28 48 -14 -1 -40 -16 -58 -32 -18 -16 -39 -29 -46 -29 -18 0 -53
-41 -61 -72 -5 -20 -2 -31 15 -45 12 -10 30 -34 39 -53 21 -41 36 -134 21
-125 -13 8 -60 100 -60 118 0 7 -8 29 -18 49 l-19 35 -11 -29 c-6 -17 -16 -27
-21 -23 -18 10 0 86 25 109 12 12 37 50 55 86 52 102 66 118 112 130 23 6 57
16 75 22 27 8 37 7 52 -7 22 -20 48 -10 73 29 13 19 28 25 69 30 70 9 173 26
221 38 29 7 37 13 33 24 -3 9 -6 19 -6 23 0 16 -91 70 -195 116 -61 26 -114
52 -120 57 -6 6 -1 16 15 29 44 37 67 142 32 151 -10 3 -24 23 -31 46 -8 23
-17 41 -20 40 -3 0 -24 0 -47 1 -34 1 -43 6 -54 29 -8 15 -26 39 -40 53 -14
14 -38 42 -53 62 -15 21 -36 37 -46 37 -10 0 -24 7 -31 15 -10 12 -16 13 -27
4 -10 -9 -18 -8 -31 5 -25 22 -39 20 -67 -8z m218 -212 c3 -4 1 -16 -5 -27
-10 -20 -11 -20 -24 -2 -8 10 -14 22 -14 27 0 9 34 11 43 2z m121 -216 c9 -43
-10 -65 -36 -41 -14 13 -17 24 -12 47 3 17 8 35 11 39 8 14 30 -13 37 -45z
m-1073 -241 c6 -12 23 -31 39 -42 25 -17 61 -72 65 -100 2 -13 14 -46 26 -68
8 -14 6 -24 -5 -36 -24 -27 -20 -51 9 -51 19 0 26 7 33 32 6 25 15 34 41 41
32 8 93 44 99 60 2 4 11 7 20 7 14 -1 14 -4 -4 -18 -12 -10 -26 -28 -33 -40
-6 -12 -20 -22 -30 -22 -25 0 -42 -22 -44 -57 -2 -25 1 -28 27 -25 26 3 28 1
22 -20 -17 -59 -19 -88 -4 -88 20 0 37 20 31 37 -5 14 23 53 39 53 12 0 10
-34 -3 -47 -16 -16 -4 -44 16 -37 9 4 15 1 15 -8 0 -11 -11 -15 -43 -13 -39 1
-43 -1 -39 -21 3 -15 -2 -23 -18 -27 l-21 -6 20 -20 c25 -25 29 -74 6 -65 -8
4 -15 1 -15 -5 0 -6 6 -11 14 -11 12 0 12 -7 -2 -42 -8 -24 -22 -50 -29 -59
-7 -8 -13 -29 -13 -45 0 -16 -6 -39 -14 -50 -8 -11 -16 -36 -18 -55 -3 -38
-21 -46 -26 -11 -4 25 -37 31 -46 7 -3 -8 -14 -15 -24 -15 -10 0 -29 -11 -42
-25 -13 -14 -32 -25 -42 -25 -10 0 -18 -7 -18 -15 0 -8 7 -15 15 -15 21 0 18
-29 -8 -74 -35 -62 -49 -59 -41 11 8 69 -1 65 -45 -21 -34 -64 -37 -77 -19
-106 10 -16 9 -25 -6 -52 -11 -17 -15 -33 -10 -35 10 -3 11 -90 1 -99 -3 -3
-11 5 -18 18 -18 34 -30 38 -60 22 -38 -19 -39 -18 -26 16 14 37 -2 61 -27 41
-10 -8 -16 -9 -21 -1 -10 17 -36 12 -71 -15 -19 -14 -39 -22 -48 -19 -20 8
-21 24 -2 24 19 0 22 6 31 58 6 38 5 42 -13 42 -11 0 -22 -7 -26 -15 -3 -8
-14 -15 -25 -15 -12 0 -21 -9 -25 -25 -4 -17 -13 -25 -27 -25 -12 0 -34 -11
-51 -25 -16 -14 -38 -25 -48 -25 -11 0 -23 -6 -27 -13 -4 -7 -20 -20 -35 -30
-23 -14 -28 -25 -28 -56 0 -22 -6 -42 -12 -45 -10 -3 -8 -9 5 -19 12 -10 14
-17 7 -22 -6 -4 -8 -15 -5 -26 6 -19 -13 -43 -70 -86 l-30 -22 26 0 c41 -1 55
-25 34 -57 -9 -14 -19 -23 -22 -20 -3 3 -12 -2 -18 -11 -19 -25 -49 1 -40 35
5 19 -1 32 -21 53 -33 34 -69 38 -77 9 -8 -29 -37 -26 -37 5 0 21 -5 25 -30
25 -17 0 -33 7 -39 18 -10 16 -12 16 -42 -1 -26 -14 -34 -15 -40 -5 -13 19
-11 23 14 37 23 12 60 21 105 24 15 1 25 10 29 25 3 12 17 32 31 43 l26 20 8
-21 c8 -22 28 -19 28 5 0 7 6 15 14 18 8 3 19 21 26 41 6 19 20 38 30 41 10 3
23 18 28 34 9 27 74 61 255 135 38 16 50 36 20 36 -10 0 -38 -5 -62 -11 -49
-11 -67 -5 -28 10 14 5 28 15 32 20 3 6 24 11 45 11 30 0 42 5 50 21 7 11 9
23 6 26 -3 3 4 19 15 34 15 22 26 28 43 23 16 -4 48 12 120 60 53 36 103 66
110 66 7 0 31 14 52 31 22 17 53 37 71 44 20 9 37 26 46 47 17 40 79 102 119
119 31 12 39 42 11 37 -25 -4 -19 47 8 85 13 18 18 35 13 45 -4 9 -8 22 -8 27
-2 17 -68 18 -78 2 -4 -9 -22 -15 -43 -15 l-36 0 7 45 c7 45 6 46 -19 41 -24
-5 -27 -2 -37 47 -7 32 -22 63 -40 84 -17 18 -30 36 -30 41 0 21 13 38 26 33
8 -3 14 0 14 6 0 6 -4 11 -9 11 -5 0 -13 9 -16 20 -3 11 -13 20 -21 20 -8 0
-14 9 -14 20 0 12 5 17 14 14 8 -3 28 8 45 25 38 37 48 38 62 8z m803 2 c45
-26 55 -61 31 -106 -14 -25 -25 -33 -47 -33 -23 0 -28 4 -28 25 0 14 -6 28
-14 31 -26 10 -29 54 -5 80 12 13 24 24 25 24 2 0 19 -9 38 -21z m-94 -96 c0
-5 -11 -21 -25 -38 -27 -34 -36 -14 -9 23 15 21 34 30 34 15z m-216 -18 c-25
-19 -35 -19 -28 0 4 8 16 15 27 15 20 0 20 0 1 -15z m106 -13 c0 -5 -18 -34
-40 -65 -22 -30 -40 -60 -40 -65 0 -5 -10 -17 -21 -28 -22 -19 -22 -19 -9 6 9
17 10 25 1 28 -22 7 -11 33 35 82 43 46 74 63 74 42z m-160 -27 c-7 -9 -15
-13 -17 -11 -7 7 7 26 19 26 6 0 6 -6 -2 -15z m-1110 -14 c0 -12 -20 -25 -27
-18 -7 7 6 27 18 27 5 0 9 -4 9 -9z m1045 -41 c-10 -11 -23 -20 -28 -20 -6 0
-2 9 8 20 10 11 23 20 28 20 6 0 2 -9 -8 -20z m61 -44 c-17 -36 -33 -52 -43
-43 -9 9 8 47 30 67 28 27 33 18 13 -24z m262 -160 c27 -53 27 -58 2 -74 -11
-7 -20 -23 -20 -37 0 -14 -4 -25 -10 -25 -17 0 -30 38 -30 87 0 101 23 120 58
49z m277 -39 c27 -55 36 -84 33 -112 -2 -21 -7 -40 -13 -42 -14 -4 -77 114
-86 161 -17 92 19 88 66 -7z m-1103 -39 c-18 -19 -22 -20 -22 -6 0 9 8 21 17
27 27 15 29 3 5 -21z m690 0 c-7 -7 -12 -8 -12 -2 0 6 3 14 7 17 3 4 9 5 12 2
2 -3 -1 -11 -7 -17z m-201 -51 c-10 -9 -11 -8 -5 6 3 10 9 15 12 12 3 -3 0
-11 -7 -18z m6 -93 c9 -24 -39 -68 -66 -59 -28 9 -29 39 0 32 15 -4 22 1 29
19 11 27 28 31 37 8z m-911 -21 c3 -10 10 -26 15 -35 6 -13 2 -25 -15 -45
l-24 -27 -7 51 c-4 29 -4 57 0 63 10 15 25 12 31 -7z m139 -4 c8 -12 -24 -51
-36 -43 -13 8 -11 42 4 47 19 8 25 8 32 -4z m861 -76 c-10 -18 -15 -22 -16
-12 0 9 -7 22 -15 29 -21 17 -19 30 4 30 11 0 23 6 28 13 15 24 15 -31 -1 -60z
m-56 47 c0 -5 -5 -10 -11 -10 -5 0 -7 5 -4 10 3 6 8 10 11 10 2 0 4 -4 4 -10z
m396 -55 c-7 -28 -26 -34 -26 -9 0 8 5 25 12 37 14 26 23 8 14 -28z m-1786 31
c0 -3 -4 -8 -10 -11 -5 -3 -10 -1 -10 4 0 6 5 11 10 11 6 0 10 -2 10 -4z
m2070 -32 c0 -8 -5 -12 -10 -9 -6 4 -8 11 -5 16 9 14 15 11 15 -7z m-748 -38
c22 -16 41 -65 33 -85 -6 -14 -8 -14 -20 2 -13 18 -15 18 -39 2 -14 -10 -26
-23 -26 -30 0 -6 -9 -20 -20 -30 -20 -18 -20 -17 -20 7 0 17 7 27 20 31 25 7
26 23 1 37 -17 8 -18 14 -8 39 6 17 20 32 32 34 11 2 22 5 25 5 3 1 13 -4 22
-12z m-834 -7 c-2 -6 -7 -10 -11 -10 -4 1 -14 1 -23 1 -8 0 -12 5 -9 10 8 13
48 13 43 -1z m-394 -38 c21 -23 6 -37 -24 -21 -11 6 -20 7 -20 3 0 -10 -20 19
-20 30 0 15 48 6 64 -12z m316 15 c0 -2 -7 -9 -15 -16 -12 -10 -15 -10 -15 4
0 9 7 16 15 16 8 0 15 -2 15 -4z m1024 -11 c-4 -8 -11 -15 -16 -15 -6 0 -5 6
2 15 7 8 14 15 16 15 2 0 1 -7 -2 -15z m-1064 -15 c0 -5 -7 -10 -15 -10 -8 0
-15 5 -15 10 0 6 7 10 15 10 8 0 15 -4 15 -10z m1066 -123 c-12 -9 -14 -19 -8
-42 11 -42 1 -100 -18 -100 -16 0 -16 9 -4 112 4 37 11 53 22 55 23 5 28 -11
8 -25z m-1053 -23 c11 -14 16 -28 12 -32 -7 -7 -45 34 -45 49 0 16 15 9 33
-17z m1131 -33 c13 -14 15 -24 8 -36 -8 -16 -11 -15 -26 6 -30 43 -15 67 18
30z m-1156 -98 c3 -17 -2 -23 -16 -23 -11 0 -43 -16 -72 -35 -29 -20 -64 -35
-81 -35 -20 0 -27 -4 -23 -14 3 -8 1 -17 -4 -20 -12 -7 -45 41 -37 54 4 6 -1
13 -9 16 -25 9 -19 27 7 21 12 -4 29 -2 36 3 8 5 24 4 38 -1 19 -7 32 -2 71
26 53 39 85 42 90 8z m-288 -53 c0 -11 -39 -24 -47 -16 -10 10 18 35 33 29 8
-3 14 -9 14 -13z m867 -130 c3 0 12 8 19 18 12 16 13 16 14 0 0 -9 -8 -22 -17
-27 -16 -9 -16 -12 -3 -20 11 -8 12 -13 3 -22 -13 -13 -33 -4 -33 16 0 8 -8
18 -17 24 -16 9 -16 11 2 31 l20 22 3 -21 c2 -11 6 -21 9 -21z m-329 8 c-6
-18 -25 -20 -31 -3 -5 10 0 15 14 15 12 0 19 -5 17 -12z m-198 -15 c0 -5 -7
-17 -15 -27 -8 -11 -15 -28 -15 -38 0 -10 -7 -21 -15 -25 -22 -8 -30 4 -16 21
7 8 10 20 6 26 -3 5 1 10 9 10 9 0 16 9 16 20 0 11 7 20 15 20 8 0 15 -3 15
-7z m204 -89 c9 -47 0 -61 -35 -56 -26 4 -30 8 -24 26 4 11 9 35 12 53 4 28 7
30 23 21 10 -7 21 -26 24 -44z m486 15 c0 -5 -9 -9 -19 -9 -22 0 -36 27 -18
33 13 5 37 -11 37 -24z m-82 -17 c3 -24 -1 -32 -13 -32 -11 0 -15 5 -12 15 4
8 2 17 -3 20 -17 11 -11 37 8 33 11 -2 18 -14 20 -36z m150 20 c-34 -7 -18
-21 38 -33 58 -13 75 -30 57 -57 -15 -24 -33 -26 -33 -3 0 37 -18 23 -25 -20
-5 -30 -13 -43 -31 -49 -13 -5 -24 -14 -24 -20 0 -5 -5 -10 -12 -10 -6 0 -19
-7 -28 -15 -15 -13 -20 -13 -48 1 -32 15 -35 34 -6 34 8 0 14 5 14 11 0 8 -14
10 -40 6 l-40 -5 18 31 c10 18 17 39 15 49 -3 11 5 18 25 23 17 3 38 15 48 26
9 10 23 19 29 19 7 0 18 7 25 15 7 8 17 12 24 8 7 -5 5 -9 -6 -11z m-1294
-148 c25 -10 20 -44 -6 -44 -32 0 -52 15 -45 34 7 17 24 20 51 10z m-244 -53
c0 -13 -108 -63 -123 -58 -7 2 11 18 38 35 49 31 85 41 85 23z m120 -18 c-1
-36 -38 -66 -83 -67 -35 -1 -42 2 -42 19 0 12 15 28 40 42 49 28 85 30 85 6z
m550 -93 c0 -5 -7 -10 -15 -10 -8 0 -15 5 -15 10 0 6 7 10 15 10 8 0 15 -4 15
-10z m516 -126 c-3 -9 -6 -18 -6 -20 0 -2 -7 -4 -15 -4 -13 0 -13 3 -3 20 15
24 33 27 24 4z"/>
<path d="M3815 4211 c-3 -5 -1 -12 5 -16 5 -3 10 1 10 9 0 18 -6 21 -15 7z"/>
<path d="M3657 4023 c-14 -13 -6 -33 13 -33 13 0 20 7 20 20 0 19 -20 27 -33
13z"/>
<path d="M3457 3774 c-8 -8 1 -24 14 -24 5 0 9 7 9 15 0 15 -12 20 -23 9z"/>
<path d="M3403 3645 c-18 -8 -33 -21 -33 -30 0 -12 8 -10 40 11 56 37 53 45
-7 19z"/>
<path d="M3430 3571 c0 -21 13 -41 26 -41 17 0 17 10 0 33 -14 19 -26 22 -26
8z"/>
<path d="M3683 3306 c10 -8 15 -20 11 -30 -5 -12 -2 -15 10 -10 10 4 15 12 12
19 -2 7 1 18 7 24 8 8 2 11 -23 11 -31 -1 -33 -2 -17 -14z"/>
<path d="M3900 5405 c-14 -16 -6 -35 16 -35 8 0 14 10 14 25 0 28 -12 32 -30
10z"/>
<path d="M3771 5371 c-10 -10 -32 -22 -49 -26 -19 -4 -32 -14 -36 -28 -4 -17
-8 -19 -18 -9 -33 33 -68 -10 -44 -57 14 -26 49 -40 104 -41 25 0 11 20 -24
35 -43 18 -37 36 11 28 29 -5 35 -3 35 13 0 14 3 15 12 6 7 -7 23 -12 38 -12
14 0 31 -4 39 -9 9 -6 23 -4 38 6 16 10 49 16 98 17 109 1 97 21 -22 36 -82
10 -99 15 -116 36 -22 29 -41 30 -66 5z m99 -81 c0 -5 -4 -10 -10 -10 -5 0
-10 5 -10 10 0 6 5 10 10 10 6 0 10 -4 10 -10z"/>
<path d="M4096 5320 c-19 -6 -19 -7 -1 -13 20 -8 29 -4 24 11 -2 5 -13 6 -23
2z"/>
<path d="M4282 5308 c6 -17 36 -34 45 -24 4 4 -1 14 -11 22 -24 17 -39 18 -34
2z"/>
<path d="M3777 5263 c-15 -14 -6 -29 25 -41 42 -15 44 -11 10 21 -16 15 -31
24 -35 20z"/>
<path d="M4358 5253 c5 -10 7 -24 5 -31 -3 -7 7 -28 21 -47 31 -41 32 -45 6
-45 -23 0 -26 -18 -6 -45 12 -16 16 -17 30 -6 13 11 17 9 28 -13 16 -36 42
-30 46 11 3 31 -6 47 -95 161 -27 34 -50 44 -35 15z"/>
<path d="M2497 4246 c-4 -10 -5 -21 -2 -24 9 -9 17 6 13 25 -3 17 -4 17 -11
-1z"/>
<path d="M4807 4133 c-4 -3 -7 -20 -6 -37 l1 -31 8 35 c9 36 8 45 -3 33z"/>
<path d="M2428 3978 c-15 -15 -18 -23 -9 -26 17 -6 57 33 42 42 -5 4 -20 -3
-33 -16z"/>
<path d="M4714 3936 c-6 -17 2 -36 17 -36 12 0 12 37 -1 45 -6 3 -13 -1 -16
-9z"/>
<path d="M3140 2955 c-7 -8 -8 -15 -2 -15 5 0 15 7 22 15 7 8 8 15 2 15 -5 0
-15 -7 -22 -15z"/>
<path d="M490 2388 c-36 -10 -119 -23 -185 -28 -123 -10 -164 -25 -137 -52 9
-9 24 -8 67 1 31 7 98 18 150 26 63 9 115 23 157 43 74 36 50 41 -52 10z"/>
</g>
</svg>
